<svg xmlns="http://www.w3.org/2000/svg" xmlns:xlink="http://www.w3.org/1999/xlink" style="vertical-align:-3.005ex" width="100.217ex" height="7.009ex" viewBox="0 -1724.2 43148.8 3017.9"><defs><path id="h" stroke-width="1" d="M60 749l4 1h22l28-24q94-85 137-212t43-264q0-68-10-131T261 12t-37-88-38-67-41-51-32-33-23-19l-4-4H63q-3 0-5 3t-3 9q1 1 11 13Q221-64 221 250T66 725q-10 12-11 13 0 8 5 11z"/><path id="a" stroke-width="1" d="M60 948q3 2 605 2h602l58-135q59-138 63-146h-40l-7 14q-21 41-56 78-50 48-111 77t-141 43-151 17-183 4H251l8-11q463-633 465-639 1-2 0-6-3-3-264-302L196-356q0-1 211-1h141q89 0 128-1 136 0 220 5t167 21 141 49 103 87q21 26 41 72h40q0-1-7-21t-25-65-31-84l-58-155-601-1q-602 0-605 2-6 2-6 9 0 2 2 6l533 610q0 1-33 45T452 366 322 544L56 909l-1 15q0 21 5 24z"/><path id="c" stroke-width="1" d="M56 347q0 13 14 20h637q15-8 15-20 0-11-14-19l-318-1H72q-16 5-16 20zm0-194q0 15 16 20h636q14-10 14-20 0-13-15-20H70q-14 7-14 20z"/><path id="d" stroke-width="1" d="M96 585q56 81 153 81 48 0 96-26t78-92q37-83 37-228 0-155-43-237-20-42-55-67t-61-31-51-7q-26 0-52 6t-61 32-55 67q-43 82-43 237 0 174 57 265zm225 12q-30 32-71 32-42 0-72-32-25-26-33-72t-8-192q0-158 8-208t36-79q28-30 69-30 40 0 68 30 29 30 36 84t8 203q0 145-8 191t-33 73z"/><path id="e" stroke-width="1" d="M55 217q0 88 56 156t143 69q88 0 165-61 38-31 74-78l14-19 7 10q104 148 233 148 86 0 141-68t56-160q0-86-55-155T743-11q-86 0-163 61-38 31-74 78l-14 19-7-10Q381-11 252-11q-86 0-141 68T55 217zm852 0q0 68-38 124t-108 56q-21 0-41-5t-38-14-34-19-29-24-25-25-20-25-15-22-11-17l-5-8 31-40q31-40 48-60t42-44 50-33 51-10q62 0 102 49t40 117zm-815-3q0-69 39-125t108-56q118 0 217 160l-31 40q-61 79-91 104-49 43-101 43-62 0-101-49T92 214z"/><path id="f" stroke-width="1" d="M118-162q2 0 6-2t11-3 12-1q13 0 24 13t16 29q10 27 34 153t46 240 22 115v3h-47q-47 0-50 2-4 3-4 10l7 28q2 5 8 5t47 1q48 0 48 1 0 2 9 50t12 58q37 165 146 165 37-2 61-22t24-53q0-36-21-52t-42-17q-44 0-44 42 0 19 11 33t24 21l9 5q-16 6-30 6-12 0-23-10t-15-28q-7-29-16-78t-16-83-7-36q0-2 55-2 45 0 52-1t11-6q1-4-2-17t-5-16q-2-5-9-5t-54-1h-56l-23-122Q301 15 282-47q-27-85-70-126-37-32-73-32-32 0-58 19t-26 54q0 37 21 54t42 17q44 0 44-42 0-19-11-33t-24-21l-9-5z"/><path id="g" stroke-width="1" d="M94 250q0 69 10 131t23 107 37 88 38 67 42 52 33 34 25 21h17q14 0 14-9 0-3-17-21t-41-53-49-86-42-138-17-193 17-192 41-139 49-86 42-53 17-21q0-9-15-9h-16l-28 24q-94 85-137 212T94 250z"/><path id="b" stroke-width="1" d="M21 287q1 6 3 16t12 38 20 47 33 37 46 17q36 0 60-18t30-34 6-21q0-2 1-2l11 11q61 64 139 64 54 0 87-27t34-79-38-157-38-127q0-26 17-26 6 0 9 1 29 5 52 38t35 80q2 8 20 8 20 0 20-8 0-1-4-15-8-29-22-57t-46-56-69-27q-47 0-68 27t-21 56q0 19 36 120t37 152q0 59-44 59h-5q-86 0-145-101l-7-12-33-134Q156 26 151 16q-13-27-43-27-13 0-21 6T76 7t-2 10q0 13 38 163t40 163q1 5 1 23 0 39-24 39-38 0-63-100-6-20-6-21-2-6-19-6H27q-6 6-6 9z"/><path id="i" stroke-width="1" d="M52 289q7 42 54 97t116 56q35 0 64-18t43-45q42 63 101 63 37 0 64-22t28-59q0-29-14-47t-27-22-23-4q-19 0-31 11t-12 29q0 46 50 63-11 13-40 13-13 0-19-2-38-16-56-66-60-221-60-258 0-28 16-40t35-12q37 0 73 33t49 81q3 10 6 11t16 2h4q15 0 15-8 0-1-2-11-16-57-62-101T333-11q-70 0-106 63-41-62-94-62h-6q-49 0-70 26T35 71q0 32 19 52t45 20q43 0 43-42 0-20-12-35t-23-20-13-5l-3-1q0-1 6-4t16-7 19-3q36 0 62 45 9 16 23 68t28 108 16 66q5 27 5 39 0 28-15 40t-34 12q-40 0-75-32t-49-82q-2-9-5-10t-16-2H58q-6 6-6 11z"/><path id="j" stroke-width="1" d="M78 661q0 21 18 38t42 17 42-16 19-39q0-7-20-229t-21-226q-2-8-19-8-18 0-20 8-1 3-21 225T78 661zm1-600q0 28 18 44t44 16q23-2 40-17t17-43q0-30-17-45T139 1q-25 0-42 15T79 61z"/><path id="k" stroke-width="1" d="M84 237v13l14 20h581q15-8 15-20t-15-20H98q-14 7-14 20z"/><path id="l" stroke-width="1" d="M56 237v13l14 20h299v150l1 150q10 13 19 13 13 0 20-15V270h298q15-8 15-20t-15-20H409V-68q-8-14-18-14h-4q-12 0-18 14v298H70q-14 7-14 20z"/><path id="m" stroke-width="1" d="M79 43q-6 0-27 6T30 61q0 7 55 232t61 235q15 32 52 32 20 0 42-15t22-44q0-5-2-15-1-7-87-223T84 45t-5-2z"/><path id="n" stroke-width="1" d="M109 429q-27 0-43 18t-16 44q0 71 53 123t132 52q91 0 152-56t62-145q0-43-20-82t-48-68-80-74q-36-31-100-92l-59-56 76-1q157 0 167 5 7 2 24 89v3h40v-3q-1-3-13-91T421 3V0H50v31q0 7 6 15t30 35q29 32 50 56 9 10 34 37t34 37 29 33 28 34 23 30 21 32 15 29 13 32 7 30 3 33q0 63-34 109t-97 46q-33 0-58-17t-35-33-10-19q0-1 5-1 18 0 37-14t19-46q0-25-16-42t-45-18z"/><path id="o" stroke-width="1" d="M78 250q0 24 17 42t43 18q24 0 42-16t19-43q0-25-17-43t-43-18-43 17-18 43zm447 0q0 24 17 42t43 18q24 0 42-16t19-43q0-25-17-43t-43-18-43 17-18 43zm447 0q0 24 17 42t43 18q24 0 42-16t19-43q0-25-17-43t-43-18-43 17-18 43z"/></defs><g fill="currentColor" stroke="currentColor" stroke-width="0" transform="scale(1 -1)"><use xlink:href="#a"/><g transform="matrix(.707 0 0 .707 57 -1090)"><use xlink:href="#b"/><use x="600" xlink:href="#c"/><use x="1379" xlink:href="#d"/></g><use x="521" y="1627" transform="scale(.707)" xlink:href="#e"/><path stroke="none" d="M1730 220h3569v60H1730z"/><g transform="translate(1790 725)"><use xlink:href="#f"/><g transform="matrix(.707 0 0 .707 568 362)"><use xlink:href="#g"/><use x="389" xlink:href="#b"/><use x="989" xlink:href="#h"/></g><use x="1644" xlink:href="#g"/><g transform="translate(2033)"><use xlink:href="#i"/><use x="809" y="-213" transform="scale(.707)" xlink:href="#d"/></g><use x="3059" xlink:href="#h"/></g><g transform="translate(3075 -692)"><use xlink:href="#b"/><use x="600" xlink:href="#j"/></g><use x="5420" xlink:href="#g"/><use x="5810" xlink:href="#i"/><use x="6604" xlink:href="#k"/><g transform="translate(7605)"><use xlink:href="#i"/><use x="809" y="-213" transform="scale(.707)" xlink:href="#d"/></g><g transform="translate(8631)"><use xlink:href="#h"/><use x="550" y="583" transform="scale(.707)" xlink:href="#b"/></g><use x="9823" xlink:href="#c"/><use x="10880" xlink:href="#f"/><use x="11430" xlink:href="#g"/><g transform="translate(11820)"><use xlink:href="#i"/><use x="809" y="-213" transform="scale(.707)" xlink:href="#d"/></g><use x="12846" xlink:href="#h"/><use x="13458" xlink:href="#l"/><g transform="translate(14458)"><use xlink:href="#f"/><use y="513" transform="matrix(.5 0 0 .5 568 412)" xlink:href="#m"/></g><use x="15335" xlink:href="#g"/><g transform="translate(15725)"><use xlink:href="#i"/><use x="809" y="-213" transform="scale(.707)" xlink:href="#d"/></g><use x="16751" xlink:href="#h"/><use x="17141" xlink:href="#g"/><use x="17530" xlink:href="#i"/><use x="18325" xlink:href="#k"/><g transform="translate(19326)"><use xlink:href="#i"/><use x="809" y="-213" transform="scale(.707)" xlink:href="#d"/></g><use x="20352" xlink:href="#h"/><use x="20964" xlink:href="#l"/><path stroke="none" d="M22084 220h2940v60h-2940z"/><g transform="translate(22144 725)"><use xlink:href="#f"/><g transform="matrix(.5 0 0 .5 568 618)"><use xlink:href="#m"/><use x="275" xlink:href="#m"/></g><use x="1014" xlink:href="#g"/><g transform="translate(1404)"><use xlink:href="#i"/><use x="809" y="-213" transform="scale(.707)" xlink:href="#d"/></g><use x="2430" xlink:href="#h"/></g><g transform="translate(23164 -692)"><use xlink:href="#n"/><use x="500" xlink:href="#j"/></g><use x="25145" xlink:href="#g"/><use x="25534" xlink:href="#i"/><use x="26329" xlink:href="#k"/><g transform="translate(27330)"><use xlink:href="#i"/><use x="809" y="-213" transform="scale(.707)" xlink:href="#d"/></g><g transform="translate(28356)"><use xlink:href="#h"/><use x="550" y="583" transform="scale(.707)" xlink:href="#n"/></g><use x="29422" xlink:href="#l"/><use x="30423" xlink:href="#o"/><use x="31817" xlink:href="#l"/><path stroke="none" d="M32938 220h3569v60h-3569z"/><g transform="translate(32998 725)"><use xlink:href="#f"/><g transform="matrix(.707 0 0 .707 568 362)"><use xlink:href="#g"/><use x="389" xlink:href="#b"/><use x="989" xlink:href="#h"/></g><use x="1644" xlink:href="#g"/><g transform="translate(2033)"><use xlink:href="#i"/><use x="809" y="-213" transform="scale(.707)" xlink:href="#d"/></g><use x="3059" xlink:href="#h"/></g><g transform="translate(34283 -692)"><use xlink:href="#b"/><use x="600" xlink:href="#j"/></g><use x="36627" xlink:href="#g"/><use x="37017" xlink:href="#i"/><use x="37812" xlink:href="#k"/><g transform="translate(38812)"><use xlink:href="#i"/><use x="809" y="-213" transform="scale(.707)" xlink:href="#d"/></g><g transform="translate(39839)"><use xlink:href="#h"/><use x="550" y="583" transform="scale(.707)" xlink:href="#b"/></g><use x="40975" xlink:href="#l"/><use x="41976" xlink:href="#o"/></g></svg>