<svg xmlns="http://www.w3.org/2000/svg" xmlns:xlink="http://www.w3.org/1999/xlink" style="vertical-align:-2.505ex" width="18.705ex" height="6.134ex" viewBox="0 -1562.8 8053.6 2641.1"><defs><path id="a" stroke-width="1" d="M287 628q0 7-57 9-24 0-31 1t-7 10q0 1 2 11 6 20 9 22t194 2q190-1 203-3 64-11 107-49t44-101q0-77-66-141-69-68-178-86-7-1-105-2h-95l-30-119Q247 66 247 59q0-4 1-5t7-4 17-2 33-2h31q6-9 6-11 0-16-7-30-5-5-16-5-3 0-37 1T182 2H87Q54 2 51 1 33 1 33 11q0 2 3 14 4 16 8 18t23 3q27 0 60 3 14 3 19 12 3 4 72 278t69 289zm358-74q0 13-2 21t-9 22-25 22-49 16q-7 1-80 2h-35q-18 0-29-1t-12 0q-13-1-18-9-2-6-19-77t-35-138-18-68q0-2 81-2h35q112 0 160 50 27 27 41 79t14 83z"/><path id="b" stroke-width="1" d="M94 250q0 69 10 131t23 107 37 88 38 67 42 52 33 34 25 21h17q14 0 14-9 0-3-17-21t-41-53-49-86-42-138-17-193 17-192 41-139 49-86 42-53 17-21q0-9-15-9h-16l-28 24q-94 85-137 212T94 250z"/><path id="c" stroke-width="1" d="M208 74q0-24 46-28 18 0 18-11 0-1-2-13-3-14-6-18t-13-4h-12q-10 0-34 1t-64 1Q70 2 50 0h-8q-7 7-7 11 2 27 13 35h14q70 3 102 50 6 6 181 305t178 303q7 12 24 12h25q6-9 6-10l28-323q28-323 30-326 5-11 65-11 25 0 25-10 0-2-3-14-3-15-5-18t-14-4h-14q-11 0-39 1t-73 1q-94 0-123-2h-12q-6 6-6 9t2 18q4 13 6 16l4 3h20q54 3 64 17l-12 150H283l-34-58q-41-69-41-81zm308 186q0 11-12 156t-14 146l-27-43q-16-27-63-107l-90-152 103-1q103 0 103 1z"/><path id="d" stroke-width="1" d="M139-249h-2q-12 0-18 14v486l1 486q10 13 19 13 13 0 20-15v-970q-8-14-18-14h-2z"/><path id="e" stroke-width="1" d="M231 637q-27 0-32 1t-5 11q0 27 11 33 1 1 130 1 259 0 273-2 63-10 105-45t43-92q0-64-58-115t-133-69l-10-3q64-9 105-46t42-92q0-73-72-141T453 1q-7-1-211-1Q42 0 39 2q-4 3-4 8 0 7 2 14 5 19 10 21 4 1 15 1h6q27 0 60 3 14 3 19 12 3 4 72 278t69 289q0 7-57 9zm418-93q0 30-15 56t-49 34q-7 2-92 3h-42q-22 0-35-1h-13q-15-1-19-10-2-4-32-120 0-3-1-6l-31-126h81q81 0 93 2 60 10 107 58t48 110zm-54-315q0 44-23 73t-60 34q-6 1-83 1-118 0-119-1 0-2-17-73t-35-141l-18-70q0-4 12-4t81-2q89 0 96 1 62 7 114 58t52 124z"/><path id="f" stroke-width="1" d="M60 749l4 1h22l28-24q94-85 137-212t43-264q0-68-10-131T261 12t-37-88-38-67-41-51-32-33-23-19l-4-4H63q-3 0-5 3t-3 9q1 1 11 13Q221-64 221 250T66 725q-10 12-11 13 0 8 5 11z"/><path id="g" stroke-width="1" d="M56 347q0 13 14 20h637q15-8 15-20 0-11-14-19l-318-1H72q-16 5-16 20zm0-194q0 15 16 20h636q14-10 14-20 0-13-15-20H70q-14 7-14 20z"/></defs><g fill="currentColor" stroke="currentColor" stroke-width="0" transform="scale(1 -1)"><use xlink:href="#a"/><use x="751" xlink:href="#b"/><use x="1141" xlink:href="#c"/><use x="1891" xlink:href="#d"/><use x="2170" xlink:href="#e"/><use x="2929" xlink:href="#f"/><use x="3596" xlink:href="#g"/><path stroke="none" d="M4772 220h3160v60H4772z"/><g transform="translate(4832 725)"><use xlink:href="#a"/><use x="751" xlink:href="#b"/><use x="1141" xlink:href="#c"/><use x="1891" xlink:href="#e"/><use x="2651" xlink:href="#f"/></g><g transform="translate(5207 -726)"><use xlink:href="#a"/><use x="751" xlink:href="#b"/><use x="1141" xlink:href="#e"/><use x="1900" xlink:href="#f"/></g></g></svg>